Coordinates
version=1
nRows=6
nColumns=36
inDegrees=yes

Units are S.I. units (second, meters, Newtons, ...)
If the header above contains a line with 'inDegrees', this indicates whether rotational values are in degrees (yes) or radians (no).

endheader
time	pelvis_tilt	pelvis_list	pelvis_rotation	pelvis_tx	pelvis_ty	pelvis_tz	hip_flexion_r	hip_adduction_r	hip_rotation_r	knee_angle_r	knee_angle_r_beta	ankle_angle_r	subtalar_angle_r	mtp_angle_r	hip_flexion_l	hip_adduction_l	hip_rotation_l	knee_angle_l	knee_angle_l_beta	ankle_angle_l	subtalar_angle_l	mtp_angle_l	lumbar_extension	lumbar_bending	lumbar_rotation	arm_flex_r	arm_add_r	arm_rot_r	elbow_flex_r	pro_sup_r	arm_flex_l	arm_add_l	arm_rot_l	elbow_flex_l	pro_sup_l
      0.00000000	      3.63276895	     -0.00654121	      0.96481933	     -0.91802100	      1.32211663	     -0.08750467	     -9.85414808	     -1.95890730	      0.25841731	      1.07496171	      0.01876162	      9.57580858	     -2.08177427	     -6.80921367	     -7.62254701	     -0.86677253	      2.76462525	      4.45441348	      0.07774418	     10.13985892	     -1.21874537	     -6.80921367	     -4.19054812	      0.96249978	      0.88348586	     32.33814471	     -7.48062200	     27.10425125	    148.09158003	    104.19457898	     34.32943376	     -2.71828035	     38.00465824	    145.66526846	    106.90138166
      0.00416670	      2.37590767	     -0.23883876	      1.78228528	     -0.91836485	      1.31762637	     -0.08777456	     -8.73312649	     -1.18005695	      0.80536464	      0.51595073	      0.00900504	     11.20285738	      0.96224172	     -6.82878505	     -6.79214761	     -1.02869996	      4.42312089	      3.11012505	      0.05428192	      7.95870298	     -0.34901517	     -6.82878505	     -1.83100121	      1.30240643	     -0.73230331	     33.77219626	     -7.00944175	     26.63100019	    148.45596929	    102.17941037	     35.04905253	     -4.10057449	     37.97208661	    147.77677448	    104.04825586
      0.00833330	      1.05791368	     -0.08633897	      1.42072333	     -0.91862095	      1.31474499	     -0.08684999	     -7.36216173	     -1.41434025	      0.73469878	      0.36304601	      0.00633635	     11.82290953	      1.09895381	     -6.99705516	     -5.51160297	     -0.76428935	      3.39528130	      2.79709340	      0.04881849	      7.49499972	      1.62965751	     -6.99705516	     -0.27680330	      0.86123313	     -0.27253593	     33.52405134	     -6.44285384	     26.57197559	    148.58439406	    104.23225850	     34.81626524	     -4.41099932	     37.15908370	    148.39987007	    100.69801226
      0.01250000	      0.95161835	      0.01939318	      1.39854600	     -0.91935751	      1.31473164	     -0.08649663	     -7.28538507	     -1.61106360	      0.59313361	      0.31465387	      0.00549175	     12.42771808	      1.41990286	     -7.10867432	     -5.86295365	     -0.51950246	      3.76266770	      1.88178398	      0.03284333	      6.64982184	      1.96598397	     -7.10867432	     -0.18366748	      0.46014845	     -0.24874888	     33.28945008	     -6.46141258	     26.18490304	    148.57870614	    104.97333835	     35.13090708	     -4.32888639	     38.06387782	    148.35966497	     99.55862137
      0.01666670	      0.96831369	      0.03083765	      1.28160353	     -0.91950921	      1.31443503	     -0.08629070	     -7.29894476	     -1.67336243	      0.79938858	      0.29425005	      0.00513563	     12.87940759	      1.23157009	     -7.15199215	     -6.19054762	     -0.44443514	      3.99437034	      1.34585078	      0.02348953	      6.45980000	      2.24242893	     -7.15199215	     -0.21602421	      0.36990398	     -0.27406725	     33.05902455	     -6.55252596	     26.47370190	    148.54267174	    102.98597364	     35.21883889	     -4.30004330	     38.98697394	    148.32600873	     97.53024178
      0.02083330	      0.96333713	      0.08197158	      1.22731090	     -0.92009575	      1.31464201	     -0.08600137	     -7.26968936	     -1.71747110	      1.12329021	      0.28279743	      0.00493575	     13.15460904	      0.88365251	     -7.24971204	     -6.33044088	     -0.37227678	      4.25798950	      1.07527523	      0.01876709	      6.51043315	      2.47215173	     -7.24971204	     -0.19494587	      0.25355685	     -0.23279303	     32.71566602	     -6.72790126	     26.42968525	    148.50154663	    104.92904964	     35.60821338	     -4.18276341	     39.82930094	    148.15738248	     98.53292383
